<svg width="109" height="24" viewBox="0 0 109 24" fill="none" xmlns="http://www.w3.org/2000/svg">
<g clip-path="url(#clip0_32_4552)">
<path d="M9.29503 13.0385C8.72216 12.4656 8.72216 11.5344 9.29503 10.9595L15.7382 4.51627C16.7715 3.48303 16.7715 1.80818 15.7382 0.774933C14.705 -0.258311 13.0301 -0.258311 11.9969 0.774933L4.51627 8.25762C3.48303 7.22437 1.80818 7.22437 0.774933 8.25762C-0.258311 9.29086 -0.258311 10.9657 0.774933 11.999L7.63267 18.8567L11.374 15.1154L9.29503 13.0364V13.0385ZM1.97483 11.2636C1.88109 11.2074 1.78943 11.1449 1.70818 11.0636C1.19156 10.547 1.19365 9.70957 1.70818 9.19295C2.22481 8.67633 3.06015 8.67633 3.57886 9.19295C4.09339 9.70749 4.09548 10.5449 3.57886 11.0636C3.14348 11.499 2.48103 11.5615 1.97483 11.2636ZM12.9343 3.58511C12.501 3.15181 12.4385 2.4852 12.7364 1.97899C12.7926 1.88525 12.8551 1.79359 12.9343 1.71443C13.4509 1.19781 14.2883 1.1999 14.805 1.71443C15.3216 2.23106 15.3216 3.0664 14.805 3.58511C14.2904 4.09964 13.453 4.10173 12.9343 3.58511Z" fill="#3D3D5C"/>
<path d="M23.2188 11.999L16.3611 5.14122L12.6197 8.88256L14.6987 10.9615C15.2716 11.5344 15.2716 12.4656 14.6987 13.0405L8.25553 19.4837C7.22229 20.517 7.22229 22.1918 8.25553 23.2251C9.28878 24.2583 10.9636 24.2583 11.9969 23.2251L19.4775 15.7445C20.5107 16.7777 22.1856 16.7777 23.2188 15.7445C24.2521 14.7112 24.2521 13.0364 23.2188 12.0031V11.999ZM9.19087 22.2856C8.67425 21.7689 8.67633 20.9315 9.19087 20.4149C9.70749 19.8983 10.5428 19.8983 11.0615 20.4149C11.499 20.8524 11.5594 21.5127 11.2615 22.0189C11.2053 22.1127 11.1428 22.2043 11.0615 22.2856C10.547 22.8001 9.70749 22.8001 9.19087 22.2856ZM20.4128 14.805C19.8962 14.2883 19.8983 13.4509 20.4128 12.9343C20.8482 12.4989 21.5127 12.4343 22.0168 12.7343C22.1127 12.7885 22.2022 12.8531 22.2835 12.9343C22.798 13.4488 22.8001 14.2863 22.2835 14.805C21.7689 15.3195 20.9294 15.3195 20.4128 14.805Z" fill="#3D3D5C"/>
<path d="M31.9576 19.4775V5.75367H29.3287V3.61427H36.8593V5.75367H34.2304V19.4775H31.9576Z" fill="#3D3D5C"/>
<path d="M45.5231 14.6883H41.0235V16.2257C41.0235 16.5819 41.1235 16.8569 41.3235 17.0506C41.5235 17.2443 41.7943 17.3402 42.1359 17.3402C42.5671 17.3402 42.8525 17.2131 42.9942 16.961C43.1358 16.709 43.2212 16.4569 43.2504 16.2028H45.5231C45.5231 17.1985 45.219 18.0005 44.6086 18.6088C44.3107 18.9213 43.9545 19.165 43.54 19.3442C43.1233 19.5233 42.6567 19.6108 42.1359 19.6108C41.4235 19.6108 40.8173 19.4629 40.3194 19.165C39.8215 18.8671 39.4403 18.4755 39.1716 17.9839C39.007 17.686 38.8966 17.3464 38.8383 16.9589C38.7779 16.5736 38.7487 16.1507 38.7487 15.6882V11.9677C38.7487 11.5073 38.7779 11.0845 38.8383 10.697C38.8966 10.3116 39.0091 9.96997 39.1716 9.67208C39.4382 9.18254 39.8215 8.78882 40.3194 8.49093C40.8173 8.19304 41.4214 8.04513 42.1359 8.04513C42.6546 8.04513 43.1275 8.13471 43.5504 8.31178C43.9733 8.49093 44.3336 8.73466 44.6315 9.04713C45.2252 9.71582 45.5231 10.5553 45.5231 11.5636V14.6883ZM41.0235 12.9051H43.2504V11.6136C43.2504 11.1824 43.1504 10.8595 42.9504 10.6449C42.7505 10.4303 42.4796 10.322 42.138 10.322C41.7964 10.322 41.5256 10.4303 41.3256 10.6449C41.1256 10.8595 41.0256 11.1824 41.0256 11.6136V12.9051H41.0235Z" fill="#3D3D5C"/>
<path d="M51.2705 16.2257C51.2705 16.5819 51.3705 16.8569 51.5705 17.0506C51.7705 17.2443 52.0413 17.3402 52.3829 17.3402C52.8142 17.3402 53.0996 17.2131 53.2412 16.961C53.3829 16.709 53.4683 16.4569 53.4974 16.2028H55.7702C55.7702 17.1985 55.466 18.0005 54.8556 18.6088C54.5578 18.9213 54.2015 19.165 53.787 19.3442C53.3704 19.5233 52.9037 19.6108 52.3829 19.6108C51.6705 19.6108 51.0643 19.4629 50.5664 19.165C50.0686 18.8671 49.6874 18.4755 49.4186 17.9839C49.2541 17.686 49.1436 17.3464 49.0832 16.9589C49.0228 16.5736 48.9937 16.1507 48.9937 15.6882V11.9677C48.9937 11.5073 49.0228 11.0845 49.0832 10.697C49.1436 10.3116 49.2541 9.96997 49.4186 9.67208C49.6853 9.18254 50.0686 8.78882 50.5664 8.49093C51.0643 8.19304 51.6684 8.04513 52.3829 8.04513C52.9017 8.04513 53.3745 8.13471 53.7974 8.31178C54.2203 8.49093 54.5807 8.73466 54.8786 9.04713C55.4723 9.71582 55.7702 10.5845 55.7702 11.6532H53.4974C53.4974 11.1928 53.3974 10.8553 53.1975 10.6387C52.9975 10.4241 52.7267 10.3158 52.385 10.3158C52.0434 10.3158 51.7726 10.4241 51.5726 10.6387C51.3726 10.8532 51.2726 11.1761 51.2726 11.6073V16.2257H51.2705Z" fill="#3D3D5C"/>
<path d="M59.224 19.4775V3.61635H61.4967V9.27419H61.5405C61.778 8.91798 62.0634 8.62425 62.3987 8.3951C62.7321 8.16596 63.1591 8.0493 63.6799 8.0493C63.9611 8.0493 64.2444 8.09721 64.5256 8.19304C64.8069 8.28886 65.061 8.44927 65.2839 8.67216C65.5068 8.89506 65.686 9.18045 65.8193 9.53042C65.9526 9.88039 66.0193 10.3074 66.0193 10.8116V19.4775H63.7465V11.6573C63.7465 11.2428 63.6507 10.9157 63.457 10.6762C63.2633 10.4387 62.9883 10.3199 62.6321 10.3199C62.2008 10.3199 61.903 10.4533 61.7405 10.7199C61.5759 10.9865 61.4947 11.374 61.4947 11.8781V19.4754H59.2219H59.224V19.4775Z" fill="#3D3D5C"/>
<path d="M71.6334 19.4775V5.75367H69.0044V3.61427H76.535V5.75367H73.9061V19.4775H71.6334Z" fill="#3D3D5C"/>
<path d="M78.6265 19.4775V8.18262H80.8992V9.3846C81.3596 8.97005 81.8137 8.643 82.2574 8.40344C82.7032 8.16596 83.2532 8.04722 83.9052 8.04722V10.4533C83.6823 10.3637 83.4511 10.3199 83.2136 10.3199C82.9761 10.3199 82.7199 10.3616 82.4449 10.4428C82.1699 10.5241 81.9221 10.6616 81.6992 10.8553C81.4617 11.049 81.2679 11.3011 81.12 11.6136C80.9721 11.926 80.8971 12.3114 80.8971 12.7718V19.4775H78.6244H78.6265Z" fill="#3D3D5C"/>
<path d="M90.3463 18.3192H90.3026C90.0047 18.7359 89.7047 19.0546 89.4006 19.2775C89.0964 19.5004 88.6694 19.6108 88.1194 19.6108C87.8528 19.6108 87.5799 19.5691 87.307 19.4879C87.032 19.4067 86.7675 19.2546 86.5154 19.0317C86.2633 18.8234 86.0592 18.5234 85.903 18.1297C85.7467 17.736 85.6696 17.2277 85.6696 16.6027C85.6696 15.9778 85.7217 15.4028 85.8259 14.9216C85.93 14.4383 86.1238 14.0342 86.405 13.7071C86.6716 13.3947 87.0362 13.1614 87.4966 13.0051C87.9569 12.8489 88.5444 12.7718 89.2568 12.7718H89.5026C89.5922 12.7718 89.6735 12.7801 89.7485 12.7947C89.8234 12.8093 89.9109 12.8176 90.0151 12.8176C90.1193 12.8176 90.2297 12.826 90.3484 12.8406V11.6594C90.3484 11.274 90.2672 10.9532 90.1026 10.7012C89.938 10.4491 89.6422 10.322 89.211 10.322C88.9131 10.322 88.6423 10.4178 88.3986 10.6116C88.1528 10.8053 87.9944 11.0865 87.9194 11.4573H85.7134C85.7717 10.447 86.1154 9.63041 86.7383 9.00755C87.0362 8.70966 87.3924 8.47635 87.807 8.30553C88.2215 8.13471 88.6902 8.0493 89.211 8.0493C89.686 8.0493 90.1318 8.12429 90.5484 8.2722C90.965 8.4201 91.3275 8.643 91.64 8.94089C91.9379 9.23878 92.1753 9.60958 92.3524 10.0554C92.5315 10.5012 92.619 11.022 92.619 11.6157V19.4796H90.3463V18.3192ZM90.3463 14.6216C90.0943 14.5779 89.8859 14.555 89.7235 14.555C89.2339 14.555 88.8131 14.6696 88.4652 14.9008C88.1153 15.132 87.9424 15.5507 87.9424 16.159C87.9424 16.5902 88.0465 16.9381 88.2548 17.2068C88.4632 17.4735 88.7527 17.6089 89.1235 17.6089C89.4943 17.6089 89.811 17.4818 90.0255 17.2298C90.2401 16.9777 90.3484 16.6215 90.3484 16.1611V14.6237L90.3463 14.6216Z" fill="#3D3D5C"/>
<path d="M95.9604 5.88907V3.61635H98.2331V5.88907H95.9604ZM95.9604 19.4775V8.18262H98.2331V19.4775H95.9604Z" fill="#3D3D5C"/>
<path d="M101.774 19.4775V8.18262H104.047V9.27419H104.093C104.331 8.91798 104.616 8.62425 104.951 8.3951C105.285 8.16596 105.712 8.0493 106.232 8.0493C106.514 8.0493 106.797 8.09721 107.078 8.19304C107.359 8.28886 107.614 8.44927 107.836 8.67216C108.059 8.89506 108.236 9.18045 108.372 9.53042C108.505 9.88039 108.572 10.3074 108.572 10.8116V19.4775H106.299V11.6573C106.299 11.2428 106.201 10.9157 106.01 10.6762C105.816 10.4387 105.541 10.3199 105.185 10.3199C104.753 10.3199 104.458 10.4533 104.293 10.7199C104.131 10.9865 104.047 11.374 104.047 11.8781V19.4754H101.774V19.4775Z" fill="#3D3D5C"/>
</g>
<defs>
<clipPath id="clip0_32_4552">
<rect width="108.572" height="24" fill="white"/>
</clipPath>
</defs>
</svg>
